<?xml version="1.0" encoding="UTF-8"?>
<svg id="Camada_1" data-name="Camada 1" xmlns="http://www.w3.org/2000/svg" viewBox="0 0 814.62 979.29">
  <defs>
    <style>
      .cls-1, .cls-2, .cls-3 {
        fill: #1d1d1b;
      }

      .cls-4, .cls-5 {
        fill: #fff;
      }

      .cls-2, .cls-5 {
        stroke: #fff;
        stroke-width: 4px;
      }

      .cls-2, .cls-5, .cls-3 {
        stroke-miterlimit: 10;
      }

      .cls-3 {
        stroke: #1d1d1b;
      }
    </style>
  </defs>
  <g>
    <path id="N" class="cls-5" d="M289.14,335.06v-54.43c0-.47.19-.92.52-1.25l.52-.52c.33-.33.77-.51,1.24-.51,2.29.66,5.43,1.31,9.2,1.36,4.21.06,7.7-.66,10.13-1.36.15,0,.39.02.67.13.21.09.4.21.57.38l.52.52c.33.33.52.78.52,1.25v95.11c-1.29-1.32-2.5-1.85-3.31-2.1-6.25-1.9-18.56,4.09-19.32,3.87-.21-.06-.39-.17-.39-.17-.17-.1-.33-.24-.45-.41-3.58-4.78-37.91-50.66-40.78-54.5-.13-.17-.28-.31-.47-.43l-1.15-.73c-1.17-.74-2.7.1-2.7,1.49v51.94c0,3.02-4.47,3.46-6.71,3.65-3.72.31-16.16,1.18-17.9-2.53-.09-.19-.11-.41-.11-.62.25-29.71.81-95.13.81-95.13.04-1.16.12-3.74.2-7.09,1.58-.6,5.8-1.97,10.97-.72,6.22,1.5,9.63,5.79,10.55,7.03.07.09-.48-.78-.5-.77-.02.01.36.65.37.65,0,0-.15-.3-.49-.92,3.63,8.74,25.68,60.86,44.33,57.87,1.05-.17,2.1-.51,3.16-1.07Z"/>
    <path id="D" class="cls-5" d="M602.38,278.35c57.12,5.47,63.12,82.2,11.72,97.16-13.01,3.79-42.63,4.21-56.45,2.86-3.44-.33-5.49-.54-5.7-4.62,0-.02,0-.04,0-.06,1.84-29.15-2.29-60.9,0-89.72.12-1.47.4-2.82.73-4.18.2-.83.97-1.39,1.82-1.34,15.5.86,32.74-1.54,47.89-.09ZM579.01,299.47l-.52.52c-.33.33-.52.78-.52,1.25v54.18c0,.47.19.92.52,1.25l.52.52c.33.33.77.51,1.24.51h21.09c.97,0,6.12-2.22,7.47-2.9,17.03-8.61,18.49-37.52,5-49.65-1.56-1.4-9.87-6.19-11.42-6.19h-22.13c-.46,0-.91.18-1.24.51Z"/>
    <path class="cls-5" d="M500.56,278.35c26.96,2.58,42.54,25.68,31.71,51.03-3.07,7.18-8.99,10.34-13.71,15.44-.53.57-.59,1.44-.18,2.1l17.47,27.91c.36.57.36,1.29,0,1.86l-.49.79c-.32.52-.89.83-1.49.83h-22.92c-4.63,0-11.73-23.28-17.12-27.47-.31-.24-.68-.36-1.07-.36h-16.93c-.97,0-1.76.79-1.76,1.76v23.49c0,3.76-18.36,3-24.54,1.88-.84-.15-1.44-.88-1.44-1.73v-95.26c0-.47.19-.92.52-1.25l.48-.48c.35-.35.84-.53,1.34-.5,16.18,1.01,34.26-1.57,50.13-.05ZM474.07,300.38v27.22c0,.47.19.92.52,1.25l.52.52c.33.33.77.51,1.24.51h21.09c3.99,0,10.17-3.97,11.73-7.95,9.14-23.37-16.91-26.65-33.71-23.27-.81.16-1.39.89-1.39,1.72Z"/>
    <path class="cls-5" d="M373.04,277.58c79.38-9.46,83.22,106.61,2.87,101.75-63.67-3.85-66.85-94.13-2.87-101.75ZM374.06,299.21c-6.53,1.09-15.13,8.16-18.15,13.94-12.77,24.42,10.46,54.66,37.16,42.02,27.4-12.97,18.09-62.14-19.01-55.96Z"/>
    <path class="cls-5" d="M468.13,480.69c-.18-.81-.89-1.38-1.72-1.38h-46.89c-.23,0-.85-.61-1.55-.91-.66-.29-1.05-.97-1.05-1.69v-19.85c0-.47.19-.92.52-1.25l.52-.52c.33-.33.77-.51,1.24-.51h39.89c.62,0,1.21-.31,1.51-.85,1.75-3.2,1.77-9.44,0-12.71-.3-.55-.89-.86-1.51-.86h-39.88c-.46,0-.91-.18-1.24-.51l-.52-.52c-.33-.33-.52-.78-.52-1.25v-19.15c0-.47.19-.92.52-1.25l.52-.52c.33-.33.77-.51,1.24-.51h45.06c.63,0,1.24-.33,1.53-.89,2.08-3.95,2.21-12.71-2.67-13.51l-59.13.5c-.42,0-.83.16-1.15.44-.65.57-1.51,1.48-1.51,1.61v32.15c.65,1.26,1.1,2.63,1.3,4.03.63,4.43,1.18,8.86.93,13.34-.12,2.09-.64,4-1.56,5.61,0,.09,0,.19,0,.28,0,1.37-.23,2.69-.68,3.92v27.4c0,.81.56,1.52,1.35,1.71,1.41.34,2.79.63,4.31.75,13.03,1.02,44.65,1.54,56.94-.34,6.78-1.04,5.37-7.28,4.18-12.76Z"/>
    <path class="cls-5" d="M299.34,402.65c2.47-1.33,9.36-.44,12.3-.6.58-.03,1.14.2,1.48.67.51.71.97,1.68.97,1.87v34.83c0,.97.79,1.76,1.76,1.76h44.27c.97,0,1.76-.79,1.76-1.76v-34.83c0-2.87,11.25-3.73,14.77-1.73.52.3.81.88.81,1.48v86.98c0,.84-.59,1.56-1.41,1.73-4.24.84-14.17,1.57-14.17-1.9v-33.28c0-.47-.19-.92-.52-1.25l-.52-.52c-.33-.33-.77-.51-1.24-.51h-43.22c-.46,0-.91.18-1.24.51l-.52.52c-.33.33-.52.78-.52,1.25v32.5c0,.54-.25,1.04-.67,1.39-3.67,3-9.06,2.32-13.58,1.27-.78-.18-1.34-.88-1.34-1.68,0-10.6,0-80.1,0-87.2,0-.62.3-1.21.85-1.5Z"/>
    <path class="cls-5" d="M279.39,470.89c-.16-.05-.32-.1-.47-.16-.03,0-.04-.02-.06-.02-.06-.01-.17-.04-.18-.04-.75-.21-1.33-.8-1.38-1.61-.05-.79.24-1.41.6-2.08.32-.59.72-1.16,1.21-1.62.3-.28.61-.52.94-.74-.85-6.84-4.39-13.37-10.27-17.09-9.66-6.11-40.29-9.08-38.6-23.08,1.69-14.03,29.79-7.07,39.51-1.66.72.4,1.63.22,2.17-.41,4.66-5.52,7.94-10.64-.1-14.9-9.5-5.04-23.11-6.61-33.71-5.19-16.64,2.22-29.79,15.2-23.98,32.53,6.13,18.31,32.41,15.73,43.47,24.9,6.77,5.61,5.55,14.91-2.67,17.99-5.28,1.98-11.49,1.86-17.63.45-1.25.18-2.55.15-3.89-.02-5.33-.65-10.46-3.64-14.04-7.77-1.08-.71-2.13-1.44-3.09-2.19-.73-.57-1.84-.45-2.46.24-6.57,7.37-8.47,10.74,1.37,16.88,16.44,10.25,48.2,13.52,60.4-4.61,1.93-2.87,3.09-6.2,3.53-9.64-.22-.04-.43-.09-.64-.15Z"/>
    <path class="cls-5" d="M618.38,403.93c-.1-.41-.32-.77-.67-1.01-.49-.33-1.09-.64-1.49-.8-.19-.07-.39-.1-.59-.1h-56.16c-.46,0-.91.18-1.24.51l-.52.52c-.33.33-.52.78-.52,1.25v19.28c.1,2.55.02,5.12.01,7.58,0,.1-.01.21-.01.31v59.94c0,.81.56,1.51,1.34,1.71,4.3,1.14,8.48.7,12.8-.12.83-.16,1.44-.88,1.44-1.73v-32.86c0-.97.79-1.76,1.76-1.76h37.2c2.81,0,3.78-10.4,1.75-13.67-.3-.49-.87-.75-1.45-.75h-36.98c-.46,0-.91-.18-1.24-.51l-.52-.52c-.33-.33-.52-.78-.52-1.25v-21.73c0-.97.79-1.76,1.76-1.76h41.57c.56,0,1.11-.26,1.43-.72.67-.97.96-2.12,1.07-3.35-.28-2.88-.26-5.81-.22-8.44Z"/>
    <path class="cls-5" d="M539.75,479.31h-34.31c-.46,0-.91-.18-1.24-.51l-.52-.52c-.33-.33-.52-.78-.52-1.25v-43.81c-.17-1.37-.28-2.74-.22-4.12.03-.65.11-1.29.22-1.9v-21.58c0-.22-.95-1.76-1.6-2.59-.25-.32-.59-.53-.99-.61-2.86-.54-10.11-1.27-12.29.51-.38.31-.56.79-.56,1.28l-.67,86.7c0,.54.24,1.06.66,1.4,1.57,1.24,3.52,1.29,5.53,1.47,11.14.99,30.33.75,41.64,0,1.62-.11,3.16-.44,4.71-.76.79-.16,1.37-.83,1.41-1.64l.51-10.23c.05-1-.75-1.85-1.76-1.85Z"/>
  </g>
  <path class="cls-4" d="M619.03,623.99c3.99-2.34,70.22-41.92,62.07-70.76-.66-2.33-1.83-4.69-3.72-7.03"/>
  <path class="cls-1" d="M223.76,380.08c2.5.33,1.05-.45-.69-1.48-1.43.72-1.76,1.15.69,1.48Z"/>
  <path class="cls-1" d="M246.45,364.24s-.02-.03-.02-.04c-.02-.07-.02-.13,0-.2,0-.03.02-.07.04-.1h0s0,.01,0,.01c0,0,0-.02,0-.02,0-.01,0-.02,0-.04,0-.02,0-.04,0-.06,0,0,0,0,0-.01,0,0,0-.01,0-.02,0-.05-.02-.1-.02-.15,0-.03.02-.06.02-.1-.33,0-.87.08-1.73.29-40.56,10.18-23.02,10.47-24.38,12.04-.62.72,1.17,1.85,2.73,2.77,1.69-.85,4.93-2.1,6.98-4.03,10.5-9.95,15.25-9.99,15.01-9.6-.16.25.81-.25,1.39-.74Z"/>
  <path class="cls-1" d="M276.93,363.38c5.51-.81,3.48,1.13,3.83,1.34,1.05.66,2.23-2.36,5.86-6.44l-9.69,5.1Z"/>
  <path class="cls-1" d="M315.04,343.27c-2.92.6-7.09,1.66-11.78,3.59-8.44,3.48-13.47,7.85-16.63,11.42l28.42-14.96s0-.03,0-.05Z"/>
  <path class="cls-1" d="M223.75,473.65l-13.95,2.09c.08.73.05.4.13,1.13,5.75-.42,11.33-.85,16.79-1.28-1.04-.57-2.03-1.22-2.98-1.94Z"/>
  <path class="cls-1" d="M281.58,470.6s.01-.07.02-.11c0-.21-.02-.43-.06-.64-.09-.42-.18-.84-.18-1.27,0-.45.14-.83.41-1.18,0-.27.01-.55-.01-.82-.02-.09-.04-.17-.07-.26-.09-.31-.15-.64-.19-.96-.01-.12,0-.24.02-.36l-18.79,2.82c.13,1.05.12,2.12-.06,3.17l-.1.62c-.06.34-.14.66-.24.99,6.67-.61,13.06-1.22,19.24-1.83,0-.05,0-.11.02-.16Z"/>
  <path class="cls-1" d="M377.02,450.69s0-.01-.01,0l-78.68,11.8c.02,2.17.09,4.39-.08,6.57,33.38-3.58,59-7.2,78.89-10.59,0,0,0,0,0-.01-.27-2.61-.31-5.16-.12-7.76Z"/>
  <path class="cls-1" d="M462.02,439.4l-58.64,7.97c.21,2.02.31,4.05.22,6.09,9.15-1.73,29.63-5.65,57.89-10.45,0,0,0,0,0,0,.08-1.23.28-2.41.53-3.59,0,0,0-.01-.01,0Z"/>
  <path class="cls-1" d="M555.21,423.66c.02.47.03.94.04,1.41,6.99-1.29,13.46-2.62,19.51-3.96l-19.55,2.55Z"/>
  <path class="cls-1" d="M590.17,418.51c.92-.05,1.85.05,2.76-.08.03,0,.05,0,.08,0l28.34-4.02c-.38-2.33-.5-4.76-.52-7.09-10.75,3.58-22.18,7.37-36.08,11.09.64.02,1.27.04,1.9.06,1.17.04,2.35.04,3.52.03Z"/>
  <path class="cls-1" d="M226.81,473.21l-13.48,2.02c.08.73.05.4.13,1.13,5.56-.41,10.97-.82,16.26-1.23-1.01-.57-1.99-1.21-2.91-1.92Z"/>
  <path class="cls-1" d="M281.58,470.6s.01-.07.02-.11c0-.21-.02-.43-.06-.64-.09-.42-.18-.84-.18-1.27,0-.45.14-.83.41-1.18,0-.27.01-.55-.01-.82-.02-.09-.04-.17-.07-.26-.09-.31-.15-.64-.19-.96-.02-.14,0-.27.03-.41l-18.37,2.75c.13,1.05.12,2.12-.06,3.17l-.1.62c-.06.34-.14.66-.24.99,6.52-.59,12.77-1.19,18.82-1.79,0-.03,0-.07.01-.1Z"/>
  <path class="cls-1" d="M377.44,450.58s0-.01-.01,0l-79.1,11.86c.01,2.16.09,4.37-.08,6.55,33.58-3.6,59.34-7.23,79.31-10.63,0,0,0,0,0-.01-.27-2.61-.31-5.16-.12-7.76Z"/>
  <path class="cls-1" d="M505.08,434.52c0-.37-.03-.74,0-1.11,0-.09.01-.18.02-.28,0-.03,0-.05,0-.08,0-.05,0-.1,0-.16-.07-.12-.06-.25-.02-.38-.05-.2-.1-.41-.09-.62,0-.02.01-.03.02-.05l-19.69,2.15s-.01,0-.01.01c.14,1,.25,2.01.26,3.02,0,0,0,0,.01,0,5.74-.74,11.61-1.49,17.65-2.25.64-.08,1.25-.16,1.86-.23,0-.01,0-.02,0-.03Z"/>
  <path class="cls-1" d="M379.46,451.38c-.32-.28-.47-.4-.79-.68l-83.98,11.77c.02,2.16.1,4.37-.09,6.54,35.67-3.57,63.1-7.18,84.41-10.55.22-.27.35-.43.56-.7-.21-2.14-.24-4.25-.12-6.38Z"/>
  <path class="cls-1" d="M276.88,471.14c-.16-.05-.32-.1-.47-.16-.03,0-.04-.02-.06-.02-.06-.01-.17-.04-.18-.04-.75-.21-1.33-.8-1.38-1.61-.05-.79.24-1.41.6-2.08.32-.59.72-1.16,1.21-1.62,0,0,0,0,0,0l-15.17,2.27c-.34.05-.56.35-.54.69.06.86.03,1.72-.11,2.57l-.1.62c-.06.34-.14.66-.24.99,5.72-.52,11.24-1.05,16.6-1.57-.04-.01-.09-.02-.14-.03Z"/>
  <path class="cls-3" d="M281.55,470.39c.4-1.21.44-3.06.1-5.2l-1.32,5.2c.4-.02.81-.02,1.22,0Z"/>
  <path class="cls-2" d="M560.17,297.92c9.4-3.46,23.31-7.23,40.34-7.14,2.16.01,10.89,1.97,22.97,2.48,2.98.13,5.43.15,6.98.16"/>
</svg>